{
  "accessors": [
    {
      "bufferView": 2,
      "componentType": 5126,
      "count": 1408,
      "max": [
        1.0,
        0.266681969165802,
        1.0
      ],
      "min": [
        -1.0,
        -0.13002583384513855,
        -1.0
      ],
      "type": "VEC3"
    },
    {
      "bufferView": 2,
      "byteOffset": 16896,
      "componentType": 5126,
      "count": 1408,
      "max": [
        1.0,
        0.9998792409896851,
        1.0
      ],
      "min": [
        -1.0,
        -0.9998792409896851,
        -1.0
      ],
      "type": "VEC3"
    },
    {
      "bufferView": 1,
      "componentType": 5126,
      "count": 1408,
      "max": [
        0.0,
        0.0
      ],
      "min": [
        0.0,
        0.0
      ],
      "type": "VEC2"
    },
    {
      "bufferView": 0,
      "componentType": 5125,
      "count": 7668,
      "type": "SCALAR"
    },
    {
      "bufferView": 2,
      "byteOffset": 33792,
      "componentType": 5126,
      "count": 2304,
      "max": [
        1.163891315460205,
        0.25466299057006836,
        1.163891315460205
      ],
      "min": [
        -1.163891315460205,
        -0.11800617724657059,
        -1.163891315460205
      ],
      "type": "VEC3"
    },
    {
      "bufferView": 2,
      "byteOffset": 61440,
      "componentType": 5126,
      "count": 2304,
      "max": [
        0.9994472861289978,
        0.9975510835647583,
        0.9994473457336426
      ],
      "min": [
        -0.9994472861289978,
        -0.9975512623786926,
        -0.9994473457336426
      ],
      "type": "VEC3"
    },
    {
      "bufferView": 1,
      "byteOffset": 11264,
      "componentType": 5126,
      "count": 2304,
      "max": [
        0.0,
        0.0
      ],
      "min": [
        0.0,
        0.0
      ],
      "type": "VEC2"
    },
    {
      "bufferView": 0,
      "byteOffset": 30672,
      "componentType": 5125,
      "count": 13824,
      "type": "SCALAR"
    },
    {
      "bufferView": 2,
      "byteOffset": 89088,
      "componentType": 5126,
      "count": 2752,
      "max": [
        0.5668914318084717,
        0.11924600601196289,
        0.11924606561660767
      ],
      "min": [
        -0.03439999371767044,
        -0.11924613267183304,
        -0.11924606561660767
      ],
      "type": "VEC3"
    },
    {
      "bufferView": 2,
      "byteOffset": 122112,
      "componentType": 5126,
      "count": 2752,
      "max": [
        0.9988723397254944,
        1.0,
        1.0
      ],
      "min": [
        -1.0,
        -1.0,
        -1.0
      ],
      "type": "VEC3"
    },
    {
      "bufferView": 1,
      "byteOffset": 29696,
      "componentType": 5126,
      "count": 2752,
      "max": [
        0.0,
        0.0
      ],
      "min": [
        0.0,
        0.0
      ],
      "type": "VEC2"
    },
    {
      "bufferView": 0,
      "byteOffset": 85968,
      "componentType": 5125,
      "count": 15930,
      "type": "SCALAR"
    },
    {
      "bufferView": 2,
      "byteOffset": 155136,
      "componentType": 5126,
      "count": 1472,
      "max": [
        2.4792537689208984,
        0.12594985961914063,
        0.12594996392726898
      ],
      "min": [
        0.5668914318084717,
        -0.12595002353191376,
        -0.12595002353191376
      ],
      "type": "VEC3"
    },
    {
      "bufferView": 2,
      "byteOffset": 172800,
      "componentType": 5126,
      "count": 1472,
      "max": [
        0.9987226128578186,
        0.9987960457801819,
        0.9987962245941162
      ],
      "min": [
        -0.9988731741905212,
        -0.998796284198761,
        -0.9987962245941162
      ],
      "type": "VEC3"
    },
    {
      "bufferView": 1,
      "byteOffset": 51712,
      "componentType": 5126,
      "count": 1472,
      "max": [
        0.0,
        0.0
      ],
      "min": [
        0.0,
        0.0
      ],
      "type": "VEC2"
    },
    {
      "bufferView": 0,
      "byteOffset": 149688,
      "componentType": 5125,
      "count": 8634,
      "type": "SCALAR"
    },
    {
      "bufferView": 2,
      "byteOffset": 190464,
      "componentType": 5126,
      "count": 1433,
      "max": [
        0.5539317727088928,
        0.07000000774860382,
        0.5591548085212708
      ],
      "min": [
        -0.5600000619888306,
        -0.07000000774860382,
        -0.5591548085212708
      ],
      "type": "VEC3"
    },
    {
      "bufferView": 2,
      "byteOffset": 207660,
      "componentType": 5126,
      "count": 1433,
      "max": [
        1.0,
        1.0,
        0.9997223615646362
      ],
      "min": [
        -0.9998247027397156,
        -1.0,
        -0.9997223615646362
      ],
      "type": "VEC3"
    },
    {
      "bufferView": 0,
      "byteOffset": 184224,
      "componentType": 5125,
      "count": 2448,
      "type": "SCALAR"
    }
  ],
  "asset": {
    "extras": {
      "author": "Tahir.Muhamad.Ajmal. (https://sketchfab.com/Tahir.Muhamad.Ajmal.)",
      "license": "CC-BY-4.0 (http://creativecommons.org/licenses/by/4.0/)",
      "source": "https://sketchfab.com/3d-models/premium-magnifier-cab8b31a2c1c4f1483afd8c8489f85f8",
      "title": "Premium magnifier"
    },
    "generator": "Sketchfab-15.61.0",
    "version": "2.0"
  },
  "bufferViews": [
    {
      "buffer": 0,
      "byteLength": 194016,
      "name": "floatBufferViews",
      "target": 34963
    },
    {
      "buffer": 0,
      "byteLength": 63488,
      "byteOffset": 194016,
      "byteStride": 8,
      "name": "floatBufferViews",
      "target": 34962
    },
    {
      "buffer": 0,
      "byteLength": 224856,
      "byteOffset": 257504,
      "byteStride": 12,
      "name": "floatBufferViews",
      "target": 34962
    }
  ],
  "buffers": [
    {
      "byteLength": 482360,
      "uri": "scene.bin"
    }
  ],
  "extensionsUsed": [
    "KHR_materials_transmission",
    "KHR_materials_specular"
  ],
  "materials": [
    {
      "alphaMode": "BLEND",
      "doubleSided": true,
      "extensions": {
        "KHR_materials_transmission": {
          "transmissionFactor": 1.0
        }
      },
      "name": "kaca",
      "pbrMetallicRoughness": {
        "baseColorFactor": [
          0.21333398349404492,
          0.21333398349404492,
          0.21333398349404492,
          0.25
        ],
        "roughnessFactor": 0.0
      }
    },
    {
      "doubleSided": true,
      "name": "Material",
      "pbrMetallicRoughness": {
        "baseColorFactor": [
          1.0,
          0.545724,
          0.093059,
          1.0
        ],
        "roughnessFactor": 0.0
      }
    },
    {
      "doubleSided": true,
      "extensions": {
        "KHR_materials_specular": {
          "specularColorFactor": [
            1.0,
            1.0,
            1.0
          ],
          "specularFactor": 0.0
        }
      },
      "name": "Material.001",
      "pbrMetallicRoughness": {
        "baseColorFactor": [
          0.0374103,
          0.0374103,
          0.0374103,
          1.0
        ],
        "metallicFactor": 0.0
      }
    }
  ],
  "meshes": [
    {
      "name": "Object_0",
      "primitives": [
        {
          "attributes": {
            "NORMAL": 1,
            "POSITION": 0,
            "TEXCOORD_0": 2
          },
          "indices": 3,
          "material": 0,
          "mode": 4
        }
      ]
    },
    {
      "name": "Object_1",
      "primitives": [
        {
          "attributes": {
            "NORMAL": 5,
            "POSITION": 4,
            "TEXCOORD_0": 6
          },
          "indices": 7,
          "material": 1,
          "mode": 4
        }
      ]
    },
    {
      "name": "Object_2",
      "primitives": [
        {
          "attributes": {
            "NORMAL": 9,
            "POSITION": 8,
            "TEXCOORD_0": 10
          },
          "indices": 11,
          "material": 1,
          "mode": 4
        }
      ]
    },
    {
      "name": "Object_3",
      "primitives": [
        {
          "attributes": {
            "NORMAL": 13,
            "POSITION": 12,
            "TEXCOORD_0": 14
          },
          "indices": 15,
          "material": 2,
          "mode": 4
        }
      ]
    },
    {
      "name": "Object_4",
      "primitives": [
        {
          "attributes": {
            "NORMAL": 17,
            "POSITION": 16
          },
          "indices": 18,
          "material": 1,
          "mode": 4
        }
      ]
    }
  ],
  "nodes": [
    {
      "children": [
        1
      ],
      "matrix": [
        1.0,
        0.0,
        0.0,
        0.0,
        0.0,
        2.220446049250313e-16,
        -1.0,
        0.0,
        0.0,
        1.0,
        2.220446049250313e-16,
        0.0,
        0.0,
        0.0,
        0.0,
        1.0
      ],
      "name": "Sketchfab_model"
    },
    {
      "children": [
        2
      ],
      "name": "root"
    },
    {
      "children": [
        3,
        11
      ],
      "matrix": [
        1.0,
        0.0,
        0.0,
        0.0,
        0.0,
        2.220446049250313e-16,
        1.0,
        0.0,
        0.0,
        -1.0,
        2.220446049250313e-16,
        0.0,
        0.0,
        0.0,
        0.0,
        1.0
      ],
      "name": "GLTF_SceneRootNode"
    },
    {
      "children": [
        4,
        6,
        8
      ],
      "matrix": [
        0.98017303828874,
        -0.19814342030917967,
        -0.0,
        0.0,
        0.19814342030917967,
        0.98017303828874,
        0.0,
        0.0,
        0.0,
        -0.0,
        1.0,
        0.0,
        5.213462829589844,
        -0.25793710350990295,
        0.0,
        1.0
      ],
      "name": "Empty_5"
    },
    {
      "children": [
        5
      ],
      "matrix": [
        1.0,
        0.0,
        0.0,
        0.0,
        0.0,
        1.0,
        0.0,
        0.0,
        0.0,
        0.0,
        1.0,
        0.0,
        -4.316300868988037,
        -0.06832802295684814,
        0.0,
        1.0
      ],
      "name": "Circle_2"
    },
    {
      "mesh": 0,
      "name": "Object_5"
    },
    {
      "children": [
        7
      ],
      "matrix": [
        1.0,
        0.0,
        0.0,
        0.0,
        0.0,
        1.0,
        0.0,
        0.0,
        0.0,
        0.0,
        1.0,
        0.0,
        -4.316300868988037,
        -0.06832802295684814,
        0.0,
        1.0
      ],
      "name": "Circle.001_3"
    },
    {
      "mesh": 1,
      "name": "Object_7"
    },
    {
      "children": [
        9,
        10
      ],
      "matrix": [
        1.2632460594177246,
        0.0,
        0.0,
        0.0,
        0.0,
        1.2632460594177246,
        0.0,
        0.0,
        0.0,
        0.0,
        1.2632460594177246,
        0.0,
        -3.152409791946411,
        0.0,
        0.0,
        1.0
      ],
      "name": "Circle.002_4"
    },
    {
      "mesh": 2,
      "name": "Object_9"
    },
    {
      "mesh": 3,
      "name": "Object_10"
    },
    {
      "children": [
        12
      ],
      "matrix": [
        1.0,
        0.0,
        0.0,
        0.0,
        0.0,
        1.0,
        0.0,
        0.0,
        0.0,
        0.0,
        1.0,
        0.0,
        0.45698338747024536,
        -0.5842022895812988,
        0.0,
        1.0
      ],
      "name": "Gear_6"
    },
    {
      "mesh": 4,
      "name": "Object_12"
    }
  ],
  "scene": 0,
  "scenes": [
    {
      "name": "Sketchfab_Scene",
      "nodes": [
        0
      ]
    }
  ]
}
